<svg xmlns="http://www.w3.org/2000/svg" width="189.988" height="200" viewBox="0 0 189.988 200"><path d="M182.721,262.224c-1.35-.754-44.284,24.848-44.262,26.394.007.5,4.854,3.534,11.178,7.241-19.792,33.274-95.531,94.557-136.123,99.278,85.965-5.486,141.748-66.4,158.233-86.933,6.308,3.348,11.273,5.8,11.7,5.551,1.328-.792.624-50.776-.726-51.53ZM169.89,334.4a5.082,5.082,0,0,0-5.093,5.093V457.114a5.082,5.082,0,0,0,5.093,5.093h28.52a5.082,5.082,0,0,0,5.093-5.093V339.49a5.082,5.082,0,0,0-5.093-5.093Zm-50.324,39.128a5.082,5.082,0,0,0-5.093,5.093v78.5a5.082,5.082,0,0,0,5.093,5.093h28.52a5.082,5.082,0,0,0,5.093-5.093v-78.5a5.082,5.082,0,0,0-5.093-5.093ZM69.24,397.36a5.082,5.082,0,0,0-5.093,5.093v54.661a5.082,5.082,0,0,0,5.093,5.093H97.76a5.082,5.082,0,0,0,5.093-5.093V402.453a5.082,5.082,0,0,0-5.093-5.093ZM18.916,412.536a5.082,5.082,0,0,0-5.093,5.093v39.486a5.082,5.082,0,0,0,5.093,5.093h28.52a5.082,5.082,0,0,0,5.093-5.093V417.628a5.082,5.082,0,0,0-5.093-5.093Z" transform="translate(-13.514 -262.207)"/></svg>